<svg width="26" height="26" viewBox="0 0 26 26" fill="none" xmlns="http://www.w3.org/2000/svg">
<g clip-path="url(#clip0_15_6)">
<path d="M7.05794 22.6207H2.52278V8.01625H7.05794V22.6207ZM4.78792 6.02406C3.33772 6.02406 2.16145 4.82289 2.16145 3.3727C2.16145 2.67611 2.43817 2.00806 2.93073 1.5155C3.42328 1.02295 4.09134 0.746231 4.78792 0.746231C5.4845 0.746231 6.15255 1.02295 6.64511 1.5155C7.13767 2.00806 7.41438 2.67611 7.41438 3.3727C7.41438 4.82289 6.23763 6.02406 4.78792 6.02406ZM24.0316 22.6207H19.5062V15.5114C19.5062 13.817 19.472 11.6442 17.1483 11.6442C14.7904 11.6442 14.429 13.485 14.429 15.3893V22.6207H9.89876V8.01625H14.2484V10.0084H14.3118C14.9173 8.86098 16.3963 7.65004 18.6029 7.65004C23.1927 7.65004 24.0365 10.6725 24.0365 14.5983V22.6207H24.0316Z" fill="white"/>
</g>
<defs>
<clipPath id="clip0_15_6">
<rect width="25" height="25" fill="white" transform="translate(0.598953 0.745743)"/>
</clipPath>
</defs>
</svg>
