<svg width="26" height="26" viewBox="0 0 26 26" fill="none" xmlns="http://www.w3.org/2000/svg">
<g clip-path="url(#clip0_28_2)">
<path d="M23.7385 15.0431L25.7903 6.01536C25.9384 5.36354 25.443 4.74284 24.7745 4.74284H7.7267L7.32887 2.79796C7.22974 2.31319 6.80318 1.96506 6.30834 1.96506H1.8583C1.283 1.96506 0.816635 2.43142 0.816635 3.00672V3.70117C0.816635 4.27647 1.283 4.74284 1.8583 4.74284H4.89142L7.94038 19.6489C7.21095 20.0684 6.71941 20.8549 6.71941 21.7567C6.71941 23.0991 7.80761 24.1873 9.14997 24.1873C10.4923 24.1873 11.5805 23.0991 11.5805 21.7567C11.5805 21.0764 11.3007 20.4618 10.8503 20.0206H19.9496C19.4992 20.4618 19.2194 21.0764 19.2194 21.7567C19.2194 23.0991 20.3076 24.1873 21.65 24.1873C22.9923 24.1873 24.0805 23.0991 24.0805 21.7567C24.0805 20.7944 23.5211 19.9628 22.7099 19.569L22.9494 18.5154C23.0975 17.8635 22.6021 17.2428 21.9336 17.2428H10.2835L9.99945 15.8539H22.7228C23.2091 15.8539 23.6307 15.5174 23.7385 15.0431Z" fill="white"/>
</g>
<defs>
<clipPath id="clip0_28_2">
<rect width="25" height="25" fill="white" transform="translate(0.816635 0.576172)"/>
</clipPath>
</defs>
</svg>
